<svg xmlns="http://www.w3.org/2000/svg" width="1366" height="91.486" viewBox="0 0 1366 91.486">
  <path id="Exclusion_1" data-name="Exclusion 1" d="M1366,91.486H0v-4c.06-.056,6.1-5.591,20.052-13.669A295.456,295.456,0,0,1,47.809,59.8c12.741-5.669,26.862-11.073,41.97-16.062,38.456-12.7,83.459-22.817,133.758-30.073,29.867-4.309,61.956-7.643,95.377-9.91C355.677,1.265,394.964,0,435.683,0S522.84,1.265,573.705,3.759c46.243,2.267,97.185,5.6,151.41,9.91,91.329,7.257,193.538,17.374,303.789,30.073,98.1,11.3,184.526,22.59,239.758,30.073,59.776,8.1,96.97,13.615,97.339,13.669v4Z" fill="#f2f6f8"/>
</svg>
