<svg xmlns="http://www.w3.org/2000/svg" width="31.497" height="32.559" viewBox="0 0 31.497 32.559">
  <g id="like" transform="translate(-8.238 0.203)">
    <g id="Group_121" data-name="Group 121" transform="translate(8.438 4.95)">
      <g id="Group_120" data-name="Group 120" transform="translate(0)">
        <path id="Path_238" data-name="Path 238" d="M39.535,90.956A2.961,2.961,0,0,0,36.577,88H31.215a9.4,9.4,0,0,0,1.272-4.882V82.8h0a3.989,3.989,0,0,0-3.926-3.988h-.03a2.026,2.026,0,0,0-2,1.823c-.4,4.822-5.046,7.307-8.154,8.819v-.5a.944.944,0,0,0-.944-.944H9.382a.944.944,0,0,0-.944.944v16.108a.944.944,0,0,0,.944.944h6.041a2.96,2.96,0,0,0,2.646-1.639,22.417,22.417,0,0,0,9.636,1.65c.573,0,1.159-.006,1.761-.011.666-.006,1.355-.013,2.078-.013h2.984a2.956,2.956,0,0,0,2.546-4.46,2.955,2.955,0,0,0,1.007-4.027,2.954,2.954,0,0,0,.642-4.519A2.947,2.947,0,0,0,39.535,90.956ZM16.492,103.05a1.071,1.071,0,0,1-1.07,1.07h-1.07v-3.083a.944.944,0,1,0-1.888,0v3.083H10.326V89.9h6.167V103.05Zm18.071-9.136h1.977a1.07,1.07,0,1,1,0,2.139H34.564a.944.944,0,1,0,0,1.888h.971a1.07,1.07,0,0,1,0,2.139H34.528a.944.944,0,1,0,0,1.888,1.07,1.07,0,1,1,0,2.139H31.543c-.731,0-1.425.007-2.1.013-4.207.04-7.3.069-11.056-1.675v-10.9h0l.3-.146a26.673,26.673,0,0,0,5.82-3.515,10.289,10.289,0,0,0,3.9-7.093.14.14,0,0,1,.115-.091h0A2.11,2.11,0,0,1,30.6,82.8v.316A8.145,8.145,0,0,1,29.018,88h-1.5a.944.944,0,1,0,0,1.888h9.061a1.07,1.07,0,1,1,0,2.139H34.564a.944.944,0,0,0,0,1.888Z" transform="translate(-8.438 -78.812)" fill="#fff" stroke="#06304a" stroke-width="0.4"/>
      </g>
    </g>
    <g id="Group_123" data-name="Group 123" transform="translate(34.614 6.976)">
      <g id="Group_122" data-name="Group 122">
        <path id="Path_239" data-name="Path 239" d="M428.176,111.062h-2.014a.944.944,0,0,0,0,1.888h2.014a.944.944,0,1,0,0-1.888Z" transform="translate(-425.219 -111.062)" fill="#fff" stroke="#06304a" stroke-width="0.4"/>
      </g>
    </g>
    <g id="Group_125" data-name="Group 125" transform="translate(20.519 6.976)">
      <g id="Group_124" data-name="Group 124">
        <path id="Path_240" data-name="Path 240" d="M203.756,111.062h-2.014a.944.944,0,0,0,0,1.888h2.014a.944.944,0,0,0,0-1.888Z" transform="translate(-200.799 -111.062)" fill="#fff" stroke="#06304a" stroke-width="0.4"/>
      </g>
    </g>
    <g id="Group_127" data-name="Group 127" transform="translate(24.546 0)">
      <g id="Group_126" data-name="Group 126" transform="translate(0 0)">
        <path id="Path_241" data-name="Path 241" d="M267.685,2.216,266.678.472a.944.944,0,0,0-1.635.944L266.05,3.16a.944.944,0,1,0,1.635-.944Z" transform="translate(-264.917 0)" fill="#fff" stroke="#06304a" stroke-width="0.4"/>
      </g>
    </g>
    <g id="Group_129" data-name="Group 129" transform="translate(31.594 0)">
      <g id="Group_128" data-name="Group 128" transform="translate(0 0)">
        <path id="Path_242" data-name="Path 242" d="M379.549.127a.944.944,0,0,0-1.289.345l-1.007,1.744a.944.944,0,1,0,1.635.944l1.007-1.744A.944.944,0,0,0,379.549.127Z" transform="translate(-377.126 0)" fill="#fff" stroke="#06304a" stroke-width="0.4"/>
      </g>
    </g>
  </g>
</svg>
