<svg xmlns="http://www.w3.org/2000/svg" width="32.546" height="32.4" viewBox="0 0 32.546 32.4">
  <g id="payment" transform="translate(-0.358 0.1)">
    <path id="Path_234" data-name="Path 234" d="M219.8,331.266a.628.628,0,1,0-.888,0A.629.629,0,0,0,219.8,331.266Zm0,0" transform="translate(-204.518 -309.455)" fill="#fff" stroke="#fff" stroke-width="0.2"/>
    <path id="Path_235" data-name="Path 235" d="M188.449,6.907A6.907,6.907,0,1,0,195.356,0,6.915,6.915,0,0,0,188.449,6.907Zm12.558,0a5.651,5.651,0,1,1-5.651-5.651A5.657,5.657,0,0,1,201.007,6.907Zm0,0" transform="translate(-176.144)" fill="#fff" stroke="#fff" stroke-width="0.2"/>
    <path id="Path_236" data-name="Path 236" d="M7.733,230.955a.628.628,0,0,0,.886.005l3.044-3a1.9,1.9,0,0,0,.447-1.948l.655-.631a1.873,1.873,0,0,1,1.307-.528H22.42a5.622,5.622,0,0,0,3.942-1.6c.044-.042-.331.4,5.694-6.8a2.512,2.512,0,0,0-3.822-3.26L24.529,217a2.523,2.523,0,0,0-1.952-.935h-7a8.1,8.1,0,0,0-3.144-.628,7.768,7.768,0,0,0-7.08,4.015,1.876,1.876,0,0,0-1.679.52l-2.987,3a.628.628,0,0,0,0,.886Zm4.7-14.265a6.854,6.854,0,0,1,2.764.575.627.627,0,0,0,.252.053h7.13a1.256,1.256,0,1,1,0,2.512H17.454a.628.628,0,0,0,0,1.256h5.123a2.508,2.508,0,0,0,2.489-2.84c3.584-3.684,4.089-4.2,4.111-4.228a1.256,1.256,0,1,1,1.918,1.623l-5.632,6.732A4.372,4.372,0,0,1,22.42,223.6H14.073a3.122,3.122,0,0,0-2.18.88l-.534.515L6.44,220.074A6.483,6.483,0,0,1,12.431,216.691ZM4.56,220.857a.626.626,0,0,1,.777-.088c.109.066-.2-.218,5.438,5.416a.629.629,0,0,1,0,.885l-2.6,2.557L2.014,223.41Zm0,0" transform="translate(0 -198.984)" fill="#fff" stroke="#fff" stroke-width="0.2"/>
    <path id="Path_237" data-name="Path 237" d="M267.083,40.616v.736a1.884,1.884,0,0,0,.628,3.659.628.628,0,0,1,0,1.256,1.136,1.136,0,0,1-.815-.475.628.628,0,0,0-.961.808,2.6,2.6,0,0,0,1.149.818v.733a.628.628,0,0,0,1.256,0v-.736a1.884,1.884,0,0,0-.628-3.659.628.628,0,0,1,0-1.256,1.008,1.008,0,0,1,.679.328.628.628,0,1,0,.873-.9,2.425,2.425,0,0,0-.925-.578v-.731a.628.628,0,1,0-1.256,0Zm0,0" transform="translate(-248.624 -37.477)" fill="#fff" stroke="#fff" stroke-width="0.2"/>
  </g>
</svg>
