<svg xmlns="http://www.w3.org/2000/svg" width="1282" height="684" viewBox="0 0 1282 684">
  <g id="Group_212" data-name="Group 212" transform="translate(-73 -26)">
    <path id="Path_137" data-name="Path 137" d="M71.468,44.341c-6.874.775-7.5,1.4-8.277,8.278-.776-6.875-1.4-7.5-8.279-8.278,6.875-.776,7.5-1.4,8.279-8.279C63.966,42.937,64.594,43.565,71.468,44.341Z" transform="translate(681.032 296.534)" fill="#f1d331"/>
    <path id="Path_133" data-name="Path 133" d="M72.008,44.611c-7.1.8-7.747,1.449-8.547,8.548-.8-7.1-1.45-7.748-8.549-8.548,7.1-.8,7.748-1.45,8.549-8.549C64.261,43.161,64.91,43.81,72.008,44.611Z" transform="translate(64.088 124.938)" fill="#f1d331"/>
    <path id="Path_131" data-name="Path 131" d="M84.912,51.064c-12.456,1.4-13.594,2.543-15,15-1.406-12.457-2.544-13.6-15-15,12.457-1.406,13.6-2.544,15-15C71.318,48.519,72.456,49.658,84.912,51.064Z" transform="translate(1032.088 156.033)" fill="#f1d331"/>
    <path id="Path_125" data-name="Path 125" d="M63.911,40.562c-3.736.421-4.078.763-4.5,4.5-.422-3.737-.763-4.079-4.5-4.5,3.737-.422,4.079-.763,4.5-4.5C59.833,39.8,60.175,40.141,63.911,40.562Z" transform="translate(754.088 154.035)" fill="#fff"/>
    <path id="Path_128" data-name="Path 128" d="M63.911,40.562c-3.736.421-4.078.763-4.5,4.5-.422-3.737-.763-4.079-4.5-4.5,3.737-.422,4.079-.763,4.5-4.5C59.833,39.8,60.175,40.141,63.911,40.562Z" transform="translate(612.088 523.035)" fill="#fff"/>
    <path id="Path_127" data-name="Path 127" d="M63.911,40.562c-3.736.421-4.078.763-4.5,4.5-.422-3.737-.763-4.079-4.5-4.5,3.737-.422,4.079-.763,4.5-4.5C59.833,39.8,60.175,40.141,63.911,40.562Z" transform="translate(47.088 174.035)" fill="#fff"/>
    <path id="Path_132" data-name="Path 132" d="M73.376,45.295c-7.666.864-8.367,1.565-9.231,9.232-.865-7.667-1.566-8.368-9.233-9.232,7.667-.865,8.368-1.566,9.233-9.233C65.009,43.729,65.71,44.43,73.376,45.295Z" transform="translate(1245.088 54.035)" fill="#fff"/>
    <path id="Path_130" data-name="Path 130" d="M63.911,40.562c-3.736.421-4.078.763-4.5,4.5-.422-3.737-.763-4.079-4.5-4.5,3.737-.422,4.079-.763,4.5-4.5C59.833,39.8,60.175,40.141,63.911,40.562Z" transform="translate(687.088 243.035)" fill="#fff"/>
    <path id="Path_135" data-name="Path 135" d="M63.911,40.562c-3.736.421-4.078.763-4.5,4.5-.422-3.737-.763-4.079-4.5-4.5,3.737-.422,4.079-.763,4.5-4.5C59.833,39.8,60.175,40.141,63.911,40.562Z" transform="translate(310.088 461.035)" fill="#fff"/>
    <path id="Path_126" data-name="Path 126" d="M63.911,40.562c-3.736.421-4.078.763-4.5,4.5-.422-3.737-.763-4.079-4.5-4.5,3.737-.422,4.079-.763,4.5-4.5C59.833,39.8,60.175,40.141,63.911,40.562Z" transform="translate(1228.088 28.035)" fill="#fff"/>
    <path id="Path_119" data-name="Path 119" d="M74.912,46.063c-8.3.936-9.063,1.7-10,10-.937-8.305-1.7-9.064-10-10,8.305-.937,9.064-1.7,10-10C65.849,44.367,66.609,45.126,74.912,46.063Z" transform="translate(1185.088 545.033)" fill="#f1d331"/>
    <path id="Path_118" data-name="Path 118" d="M75.008,46.111c-8.343.94-9.106,1.7-10.047,10.048-.942-8.345-1.7-9.108-10.049-10.048,8.345-.942,9.108-1.7,10.049-10.049C65.9,44.407,66.664,45.17,75.008,46.111Z" transform="translate(29.088 621.938)" fill="#f1d331"/>
    <path id="Path_134" data-name="Path 134" d="M67.85,42.532c-5.372.605-5.863,1.1-6.468,6.469-.606-5.373-1.1-5.864-6.47-6.469,5.373-.606,5.864-1.1,6.47-6.47C61.987,41.435,62.479,41.926,67.85,42.532Z" transform="translate(721.088 584.938)" fill="#f1d331"/>
    <circle id="Ellipse_24" data-name="Ellipse 24" cx="1" cy="1" r="1" transform="translate(367 208)" fill="#fff"/>
    <circle id="Ellipse_25" data-name="Ellipse 25" cx="1" cy="1" r="1" transform="translate(702 131)" fill="#fff"/>
    <circle id="Ellipse_26" data-name="Ellipse 26" cx="1" cy="1" r="1" transform="translate(740 26)" fill="#fff"/>
    <circle id="Ellipse_28" data-name="Ellipse 28" cx="1" cy="1" r="1" transform="translate(1265 223)" fill="#fff"/>
    <circle id="Ellipse_29" data-name="Ellipse 29" cx="1" cy="1" r="1" transform="translate(1179 141)" fill="#fff"/>
    <circle id="Ellipse_30" data-name="Ellipse 30" cx="1" cy="1" r="1" transform="translate(1142 208)" fill="#fff"/>
    <circle id="Ellipse_31" data-name="Ellipse 31" cx="1" cy="1" r="1" transform="translate(1055 150)" fill="#fff"/>
    <circle id="Ellipse_27" data-name="Ellipse 27" cx="1" cy="1" r="1" transform="translate(671 297)" fill="#fff"/>
    <circle id="Ellipse_32" data-name="Ellipse 32" cx="1" cy="1" r="1" transform="translate(73 98)" fill="#fff"/>
    <circle id="Ellipse_34" data-name="Ellipse 34" cx="1" cy="1" r="1" transform="translate(515 410)" fill="#fff"/>
    <circle id="Ellipse_36" data-name="Ellipse 36" cx="1" cy="1" r="1" transform="translate(1240 205)" fill="#fff"/>
    <circle id="Ellipse_35" data-name="Ellipse 35" cx="1" cy="1" r="1" transform="translate(1298 708)" fill="#fff"/>
    <circle id="Ellipse_38" data-name="Ellipse 38" cx="1" cy="1" r="1" transform="translate(1273 434)" fill="#fff"/>
    <circle id="Ellipse_39" data-name="Ellipse 39" cx="1" cy="1" r="1" transform="translate(1353 315)" fill="#fff"/>
    <circle id="Ellipse_40" data-name="Ellipse 40" cx="1" cy="1" r="1" transform="translate(1338 699)" fill="#fff"/>
  </g>
</svg>
